<svg width="447" height="116" viewBox="0 0 447 116" fill="none" xmlns="http://www.w3.org/2000/svg">
<path d="M56.0394 116C44.385 116 34.3643 113.876 25.9775 109.628C17.6995 105.38 11.2732 98.954 6.69859 90.3493C2.23286 81.7446 0 70.9615 0 58C0 44.9296 2.23286 34.1465 6.69859 25.6507C11.2732 17.046 17.6995 10.6197 25.9775 6.37183C34.3643 2.12394 44.385 0 56.0394 0C67.6939 0 77.6601 2.12394 85.938 6.37183C94.3249 10.6197 100.751 17.046 105.217 25.6507C109.792 34.1465 112.079 44.9296 112.079 58C112.079 70.9615 109.792 81.7446 105.217 90.3493C100.751 98.954 94.3249 105.38 85.938 109.628C77.6601 113.876 67.6939 116 56.0394 116Z" fill="#101854"/>
<mask id="mask0_46_10" style="mask-type:alpha" maskUnits="userSpaceOnUse" x="0" y="0" width="113" height="116">
<path d="M56.0394 116C44.385 116 34.3643 113.876 25.9775 109.628C17.6995 105.38 11.2732 98.954 6.69859 90.3493C2.23286 81.7446 0 70.9615 0 58C0 44.9296 2.23286 34.1465 6.69859 25.6507C11.2732 17.046 17.6995 10.6197 25.9775 6.37183C34.3643 2.12394 44.385 0 56.0394 0C67.6939 0 77.6601 2.12394 85.938 6.37183C94.3249 10.6197 100.751 17.046 105.217 25.6507C109.792 34.1465 112.079 44.9296 112.079 58C112.079 70.9615 109.792 81.7446 105.217 90.3493C100.751 98.954 94.3249 105.38 85.938 109.628C77.6601 113.876 67.6939 116 56.0394 116Z" fill="black"/>
</mask>
<g mask="url(#mask0_46_10)">
<g filter="url(#filter0_f_46_10)">
<path d="M85.8792 6.3418C87.0793 7.14018 94.7041 10.5287 97.6097 16.075C101.491 23.216 103.354 42.8149 103.354 53.8009C103.354 64.6954 101.413 73.7592 97.5316 80.9917C93.7427 88.2241 88.2903 93.6257 81.1746 97.1962C74.1513 100.767 65.6956 102.552 55.8076 102.552C45.9195 102.552 37.4173 100.767 30.3015 97.1962C23.2782 93.6257 17.8258 88.2241 13.9445 80.9917C10.1556 73.7592 8.26111 64.6954 8.26111 53.8009C8.26112 42.8149 4.79138 29.598 8.58021 22.4571C11.4033 17.1964 19.7488 9.37389 24.9084 6.93302V58.5255C24.9084 65.3203 26.1 70.8993 28.4825 75.2623C30.9372 79.5535 34.4386 82.7006 38.9869 84.7032C43.5352 86.7059 48.9501 87.707 55.2312 87.707C61.5846 87.707 67.0356 86.7059 71.584 84.7032C76.2045 82.7006 79.742 79.5536 82.1967 75.2623C84.6514 70.8993 85.8792 65.3203 85.8792 58.5255V6.3418Z" fill="#FF905C"/>
<path d="M91.4832 9.69971C97.2138 13.7362 101.792 19.0524 105.217 25.6511C109.792 34.1468 112.079 44.9298 112.079 58.0001C112.079 70.9616 109.792 81.745 105.217 90.3497C100.751 98.9543 94.325 105.381 85.9382 109.629C77.6603 113.876 67.6941 116 56.0398 116C44.3854 116 34.3644 113.876 25.9775 109.629C17.6996 105.381 11.2733 98.9543 6.69865 90.3497C2.23292 81.745 0 70.9616 0 58.0001C8.31803e-06 44.9298 2.23301 34.1468 6.69865 25.6511C10.0261 19.3923 14.3343 14.2873 19.621 10.3336V63.6211C19.6211 71.705 21.0255 78.3425 23.8336 83.5332C26.7267 88.6387 30.8536 92.3828 36.2143 94.7654C41.5752 97.148 47.9574 98.339 55.3605 98.339C62.8487 98.339 69.2735 97.148 74.6344 94.7654C80.0803 92.3828 84.2497 88.6387 87.1429 83.5332C90.0361 78.3425 91.4832 71.705 91.4832 63.6211V9.69971Z" fill="#625CFF"/>
</g>
</g>
<path d="M223.009 60.3352C223.009 69.535 221.265 77.3617 217.777 83.8153C214.317 90.2689 209.593 95.1984 203.607 98.6037C197.647 101.982 190.946 103.67 183.504 103.67C176.007 103.67 169.279 101.968 163.32 98.5625C157.36 95.1572 152.651 90.2278 149.19 83.7742C145.73 77.3206 144 69.5076 144 60.3352C144 51.1354 145.73 43.3087 149.19 36.8551C152.651 30.4015 157.36 25.4858 163.32 22.108C169.279 18.7027 176.007 17 183.504 17C190.946 17 197.647 18.7027 203.607 22.108C209.593 25.4858 214.317 30.4015 217.777 36.8551C221.265 43.3087 223.009 51.1354 223.009 60.3352ZM204.925 60.3352C204.925 54.3759 204.032 49.3504 202.247 45.2585C200.49 41.1667 198.004 38.0635 194.791 35.9489C191.578 33.8343 187.816 32.777 183.504 32.777C179.193 32.777 175.43 33.8343 172.217 35.9489C169.004 38.0635 166.505 41.1667 164.72 45.2585C162.963 49.3504 162.084 54.3759 162.084 60.3352C162.084 66.2945 162.963 71.3201 164.72 75.4119C166.505 79.5038 169.004 82.607 172.217 84.7216C175.43 86.8362 179.193 87.8935 183.504 87.8935C187.816 87.8935 191.578 86.8362 194.791 84.7216C198.004 82.607 200.49 79.5038 202.247 75.4119C204.032 71.3201 204.925 66.2945 204.925 60.3352Z" fill="#101854"/>
<path d="M272.987 75.5767V39.2443H290.535V102.517H273.687V91.0241H273.028C271.6 94.7315 269.225 97.7112 265.902 99.9631C262.606 102.215 258.583 103.341 253.832 103.341C249.603 103.341 245.882 102.38 242.669 100.457C239.456 98.535 236.943 95.8026 235.13 92.2599C233.345 88.7173 232.439 84.4744 232.412 79.5312V39.2443H249.96V76.4006C249.987 80.1354 250.99 83.0876 252.967 85.2571C254.944 87.4266 257.594 88.5114 260.917 88.5114C263.032 88.5114 265.009 88.0308 266.849 87.0696C268.689 86.081 270.172 84.6255 271.298 82.7031C272.451 80.7808 273.014 78.4053 272.987 75.5767Z" fill="#101854"/>
<path d="M334.747 39.2443V52.4261H296.643V39.2443H334.747ZM305.294 24.0852H322.842V83.0739C322.842 84.6941 323.089 85.9574 323.583 86.8636C324.078 87.7424 324.764 88.3603 325.643 88.7173C326.549 89.0743 327.593 89.2528 328.774 89.2528C329.598 89.2528 330.421 89.1842 331.245 89.0469C332.069 88.8821 332.701 88.7585 333.14 88.6761L335.9 101.734C335.021 102.009 333.785 102.325 332.193 102.682C330.6 103.066 328.664 103.3 326.384 103.382C322.155 103.547 318.448 102.984 315.262 101.693C312.104 100.402 309.646 98.3977 307.889 95.679C306.131 92.9602 305.266 89.5275 305.294 85.3807V24.0852Z" fill="#101854"/>
<path d="M370.853 103.753C364.345 103.753 358.743 102.435 354.047 99.7983C349.378 97.1345 345.78 93.3722 343.254 88.5114C340.727 83.6231 339.464 77.8423 339.464 71.169C339.464 64.6605 340.727 58.9484 343.254 54.0327C345.78 49.117 349.337 45.286 353.923 42.5398C358.537 39.7936 363.947 38.4205 370.153 38.4205C374.327 38.4205 378.213 39.0933 381.811 40.4389C385.436 41.7571 388.594 43.7481 391.285 46.4119C394.004 49.0758 396.118 52.4261 397.629 56.4631C399.139 60.4725 399.895 65.1686 399.895 70.5511V75.3707H346.467V64.4957H383.376C383.376 61.9692 382.827 59.7311 381.728 57.7813C380.63 55.8314 379.106 54.3073 377.156 53.2088C375.234 52.0829 372.995 51.5199 370.441 51.5199C367.778 51.5199 365.416 52.1378 363.356 53.3736C361.324 54.5819 359.731 56.2159 358.578 58.2756C357.424 60.3078 356.834 62.5734 356.806 65.0724V75.4119C356.806 78.5426 357.383 81.2476 358.537 83.527C359.717 85.8063 361.379 87.5639 363.521 88.7997C365.663 90.0355 368.203 90.6534 371.142 90.6534C373.091 90.6534 374.877 90.3788 376.497 89.8296C378.117 89.2803 379.504 88.4564 380.657 87.358C381.811 86.2595 382.689 84.9138 383.294 83.321L399.524 84.3921C398.7 88.2917 397.011 91.697 394.457 94.608C391.93 97.4915 388.663 99.7434 384.653 101.364C380.671 102.956 376.071 103.753 370.853 103.753Z" fill="#101854"/>
<path d="M407.866 102.517V39.2443H424.879V50.2841H425.538C426.691 46.357 428.628 43.3911 431.346 41.3864C434.065 39.3542 437.196 38.3381 440.738 38.3381C441.617 38.3381 442.565 38.393 443.581 38.5028C444.597 38.6127 445.489 38.7637 446.258 38.956V54.527C445.434 54.2798 444.295 54.0601 442.839 53.8679C441.384 53.6757 440.052 53.5795 438.843 53.5795C436.262 53.5795 433.955 54.1425 431.923 55.2685C429.918 56.367 428.325 57.9048 427.145 59.8821C425.991 61.8594 425.414 64.1387 425.414 66.7202V102.517H407.866Z" fill="#101854"/>
<defs>
<filter id="filter0_f_46_10" x="-24" y="-17.6582" width="160.079" height="157.658" filterUnits="userSpaceOnUse" color-interpolation-filters="sRGB">
<feFlood flood-opacity="0" result="BackgroundImageFix"/>
<feBlend mode="normal" in="SourceGraphic" in2="BackgroundImageFix" result="shape"/>
<feGaussianBlur stdDeviation="12" result="effect1_foregroundBlur_46_10"/>
</filter>
</defs>
</svg>
