<svg width="136" height="140" viewBox="0 0 136 140" fill="none" xmlns="http://www.w3.org/2000/svg">
<path d="M67.6338 140C53.5681 140 41.4742 137.437 31.3521 132.31C21.3615 127.183 13.6056 119.427 8.08451 109.042C2.69484 98.6573 0 85.6432 0 70C0 54.2253 2.69484 41.2113 8.08451 30.9577C13.6056 20.5728 21.3615 12.8169 31.3521 7.69013C41.4742 2.56338 53.5681 0 67.6338 0C81.6995 0 93.7277 2.56338 103.718 7.69013C113.84 12.8169 121.596 20.5728 126.986 30.9577C132.507 41.2113 135.268 54.2253 135.268 70C135.268 85.6432 132.507 98.6573 126.986 109.042C121.596 119.427 113.84 127.183 103.718 132.31C93.7277 137.437 81.6995 140 67.6338 140Z" fill="#101854"/>
<mask id="mask0_44_3" style="mask-type:alpha" maskUnits="userSpaceOnUse" x="0" y="0" width="136" height="140">
<path d="M67.6338 140C53.5681 140 41.4742 137.437 31.3521 132.31C21.3615 127.183 13.6056 119.427 8.08451 109.042C2.69484 98.6573 0 85.6432 0 70C0 54.2253 2.69484 41.2113 8.08451 30.9577C13.6056 20.5728 21.3615 12.8169 31.3521 7.69013C41.4742 2.56338 53.5681 0 67.6338 0C81.6995 0 93.7277 2.56338 103.718 7.69013C113.84 12.8169 121.596 20.5728 126.986 30.9577C132.507 41.2113 135.268 54.2253 135.268 70C135.268 85.6432 132.507 98.6573 126.986 109.042C121.596 119.427 113.84 127.183 103.718 132.31C93.7277 137.437 81.6995 140 67.6338 140Z" fill="black"/>
</mask>
<g mask="url(#mask0_44_3)">
<g filter="url(#filter0_f_44_3)">
<path d="M103.647 7.6543C105.096 8.61786 114.298 12.7074 117.805 19.4013C122.489 28.0197 124.737 51.6735 124.737 64.9325C124.737 78.0811 122.395 89.0201 117.711 97.749C113.138 106.478 106.557 112.997 97.9693 117.306C89.493 121.615 79.2878 123.769 67.354 123.77C55.4201 123.77 45.1588 121.615 36.5708 117.306C28.0944 112.997 21.5139 106.478 16.8296 97.749C12.2568 89.0201 9.97031 78.0811 9.97031 64.9325C9.97032 51.6736 5.7827 35.7221 10.3554 27.1038C13.7627 20.7547 23.8347 11.3137 30.0619 8.36785V70.6347C30.0619 78.8352 31.5 85.5685 34.3754 90.8341C37.3379 96.0133 41.5638 99.8114 47.0531 102.228C52.5425 104.645 59.0777 105.854 66.6584 105.854C74.3262 105.854 80.905 104.645 86.3944 102.228C91.9709 99.8114 96.2404 96.0133 99.2029 90.8341C102.166 85.5685 103.647 78.8352 103.647 70.6347V7.6543Z" fill="#FF905C"/>
<path d="M110.411 11.707C117.327 16.5786 122.853 22.9947 126.986 30.9586C132.507 41.2121 135.268 54.226 135.268 70.0005C135.268 85.6437 132.507 98.6581 126.986 109.043C121.596 119.428 113.84 127.184 103.718 132.311C93.728 137.437 81.6998 140 67.6342 140C53.5685 140 41.4742 137.437 31.3522 132.311C21.3616 127.184 13.6057 119.428 8.08458 109.043C2.69491 98.6581 0 85.6437 0 70.0005C1.0039e-05 54.226 2.69501 41.2121 8.08458 30.9586C12.1004 23.4049 17.3001 17.2437 23.6806 12.4719V76.7845C23.6806 86.5409 25.3756 94.5517 28.7646 100.816C32.2564 106.978 37.2371 111.497 43.707 114.372C50.177 117.248 57.8796 118.685 66.8144 118.685C75.8519 118.685 83.6059 117.248 90.0759 114.372C96.6486 111.497 101.681 106.978 105.172 100.816C108.664 94.5517 110.411 86.5409 110.411 76.7845V11.707Z" fill="#625CFF"/>
</g>
</g>
<defs>
<filter id="filter0_f_44_3" x="-24" y="-16.3457" width="183.268" height="180.346" filterUnits="userSpaceOnUse" color-interpolation-filters="sRGB">
<feFlood flood-opacity="0" result="BackgroundImageFix"/>
<feBlend mode="normal" in="SourceGraphic" in2="BackgroundImageFix" result="shape"/>
<feGaussianBlur stdDeviation="12" result="effect1_foregroundBlur_44_3"/>
</filter>
</defs>
</svg>
